<?xml version="1.0" encoding="utf-8"?>
<!-- Generator: Adobe Illustrator 16.0.0, SVG Export Plug-In . SVG Version: 6.00 Build 0)  -->
<!DOCTYPE svg PUBLIC "-//W3C//DTD SVG 1.1//EN" "http://www.w3.org/Graphics/SVG/1.1/DTD/svg11.dtd">
<svg version="1.1" id="Layer_1" xmlns="http://www.w3.org/2000/svg" xmlns:xlink="http://www.w3.org/1999/xlink" x="0px" y="0px"
	 width="962.338px" height="602.597px" viewBox="0 0 962.338 602.597" enable-background="new 0 0 962.338 602.597"
	 xml:space="preserve">
<g>
	<path fill="#AB824F" d="M955.543,584.869c0,4.61-3.315,8.349-7.404,8.349H16.071c-4.09,0-7.405-3.738-7.405-8.349V104.763
		c0-4.611,3.315-8.347,7.405-8.347h932.068c4.089,0,7.404,3.736,7.404,8.347V584.869L955.543,584.869z"/>
	<path fill="#DFB778" d="M955.543,561.627c0,4.459-3.317,8.075-7.409,8.075H15.521c-4.092,0-7.409-3.616-7.409-8.075V104.492
		c0-4.46,3.317-8.076,7.409-8.076h932.613c4.092,0,7.409,3.616,7.409,8.076V561.627L955.543,561.627z"/>
	<path fill="#D2A265" d="M663.966,280.158H285.409c-5.973,0-12.441,6.182-12.441,12.889v200.353v3.037
		c0,6.704,6.469,11.634,12.441,11.634h378.557c5.973,0,10.069-4.93,10.069-11.634v-3.037V293.046
		C674.035,286.34,669.938,280.158,663.966,280.158z"/>
	<path fill="#525757" d="M687.239,268.68c0,6.339-4.843,11.478-10.816,11.478H298.638c-5.973,0-10.815-5.139-10.815-11.478V21.883
		c0-6.338,4.843-11.478,10.815-11.478h377.785c5.974,0,10.816,5.14,10.816,11.478V268.68z"/>
	<path fill="#D8E3E6" d="M687.239,481.597H287.822V292.342c0-6.34,5.134-12.184,11.107-12.184h378.556
		c5.974,0,9.754,5.844,9.754,12.184V481.597z"/>
	<rect x="315.909" y="299.457" fill="#C0C9CA" width="340" height="97.233"/>
	<path fill="#525757" d="M383.327,351.369c0,3.438-2.951,6.225-6.59,6.225h-41.362c-3.641,0-6.59-2.786-6.59-6.225v-9.154
		c0-3.438,2.95-6.225,6.59-6.225h41.362c3.64,0,6.59,2.787,6.59,6.225V351.369z"/>
	<path fill="#525757" d="M645.479,351.369c0,3.438-2.95,6.225-6.59,6.225h-41.362c-3.641,0-6.591-2.786-6.591-6.225v-9.154
		c0-3.438,2.95-6.225,6.591-6.225h41.362c3.64,0,6.59,2.787,6.59,6.225V351.369z"/>
	<path fill="#525757" d="M365.732,381.281c0,3.438-2.95,6.225-6.59,6.225h-23.768c-3.641,0-6.59-2.787-6.59-6.225v-9.154
		c0-3.438,2.95-6.225,6.59-6.225h23.768c3.641,0,6.59,2.786,6.59,6.225V381.281z"/>
	<path fill="#525757" d="M407.958,381.281c0,3.438-2.949,6.225-6.59,6.225H377.6c-3.641,0-6.59-2.787-6.59-6.225v-9.154
		c0-3.438,2.949-6.225,6.59-6.225h23.769c3.641,0,6.59,2.786,6.59,6.225V381.281z"/>
	<path fill="#525757" d="M601.494,381.281c0,3.438-2.95,6.225-6.591,6.225h-23.768c-3.64,0-6.59-2.787-6.59-6.225v-9.154
		c0-3.438,2.95-6.225,6.59-6.225h23.768c3.641,0,6.591,2.786,6.591,6.225V381.281z"/>
	<path fill="#525757" d="M645.479,381.281c0,3.438-2.95,6.225-6.59,6.225h-23.769c-3.641,0-6.591-2.787-6.591-6.225v-9.154
		c0-3.438,2.95-6.225,6.591-6.225h23.769c3.64,0,6.59,2.786,6.59,6.225V381.281z"/>
	<path fill="#525757" d="M559.268,381.281c0,3.438-2.95,6.225-6.59,6.225H421.586c-3.64,0-6.59-2.787-6.59-6.225v-9.154
		c0-3.438,2.95-6.225,6.59-6.225h131.093c3.64,0,6.59,2.786,6.59,6.225L559.268,381.281L559.268,381.281z"/>
	<path fill="#525757" d="M353.416,321.458c0,3.438-2.949,6.225-6.59,6.225h-9.692c-3.641,0-6.591-2.787-6.591-6.225v-9.155
		c0-3.437,2.95-6.225,6.591-6.225h9.692c3.641,0,6.59,2.788,6.59,6.225V321.458z"/>
	<path fill="#525757" d="M383.327,321.458c0,3.438-2.951,6.225-6.59,6.225h-9.693c-3.639,0-6.59-2.787-6.59-6.225v-9.155
		c0-3.437,2.951-6.225,6.59-6.225h9.693c3.64,0,6.59,2.788,6.59,6.225V321.458z"/>
	<path fill="#525757" d="M411.477,321.458c0,3.438-2.951,6.225-6.59,6.225h-9.692c-3.641,0-6.591-2.787-6.591-6.225v-9.155
		c0-3.437,2.95-6.225,6.591-6.225h9.692c3.64,0,6.59,2.788,6.59,6.225V321.458z"/>
	<path fill="#525757" d="M439.628,321.458c0,3.438-2.95,6.225-6.59,6.225h-9.694c-3.639,0-6.589-2.787-6.589-6.225v-9.155
		c0-3.437,2.95-6.225,6.589-6.225h9.694c3.64,0,6.59,2.788,6.59,6.225V321.458z"/>
	<path fill="#525757" d="M469.538,321.458c0,3.438-2.95,6.225-6.59,6.225h-9.692c-3.64,0-6.59-2.787-6.59-6.225v-9.155
		c0-3.437,2.95-6.225,6.59-6.225h9.692c3.641,0,6.59,2.788,6.59,6.225V321.458z"/>
	<path fill="#525757" d="M497.688,321.458c0,3.438-2.951,6.225-6.59,6.225h-9.693c-3.64,0-6.59-2.787-6.59-6.225v-9.155
		c0-3.437,2.951-6.225,6.59-6.225h9.693c3.639,0,6.59,2.788,6.59,6.225V321.458z"/>
	<path fill="#525757" d="M527.599,321.458c0,3.438-2.949,6.225-6.591,6.225h-9.692c-3.641,0-6.591-2.787-6.591-6.225v-9.155
		c0-3.437,2.95-6.225,6.591-6.225h9.692c3.642,0,6.591,2.788,6.591,6.225V321.458z"/>
	<path fill="#525757" d="M555.749,321.458c0,3.438-2.95,6.225-6.59,6.225h-9.693c-3.64,0-6.59-2.787-6.59-6.225v-9.155
		c0-3.437,2.95-6.225,6.59-6.225h9.693c3.64,0,6.59,2.788,6.59,6.225V321.458z"/>
	<path fill="#525757" d="M583.899,321.458c0,3.438-2.949,6.225-6.59,6.225h-9.693c-3.64,0-6.59-2.787-6.59-6.225v-9.155
		c0-3.437,2.95-6.225,6.59-6.225h9.693c3.641,0,6.59,2.788,6.59,6.225V321.458z"/>
	<path fill="#525757" d="M613.81,321.458c0,3.438-2.949,6.225-6.59,6.225h-9.692c-3.641,0-6.591-2.787-6.591-6.225v-9.155
		c0-3.437,2.95-6.225,6.591-6.225h9.692c3.641,0,6.59,2.788,6.59,6.225V321.458z"/>
	<path fill="#525757" d="M411.477,351.369c0,3.438-2.951,6.225-6.59,6.225h-9.692c-3.641,0-6.591-2.786-6.591-6.225v-9.154
		c0-3.438,2.95-6.225,6.591-6.225h9.692c3.64,0,6.59,2.787,6.59,6.225V351.369z"/>
	<path fill="#525757" d="M439.628,351.369c0,3.438-2.95,6.225-6.59,6.225h-9.694c-3.639,0-6.589-2.786-6.589-6.225v-9.154
		c0-3.438,2.95-6.225,6.589-6.225h9.694c3.64,0,6.59,2.787,6.59,6.225V351.369z"/>
	<path fill="#525757" d="M469.538,351.369c0,3.438-2.95,6.225-6.59,6.225h-9.692c-3.64,0-6.59-2.786-6.59-6.225v-9.154
		c0-3.438,2.95-6.225,6.59-6.225h9.692c3.641,0,6.59,2.787,6.59,6.225V351.369z"/>
	<path fill="#525757" d="M497.688,351.369c0,3.438-2.951,6.225-6.59,6.225h-9.693c-3.64,0-6.59-2.786-6.59-6.225v-9.154
		c0-3.438,2.951-6.225,6.59-6.225h9.693c3.639,0,6.59,2.787,6.59,6.225V351.369z"/>
	<path fill="#525757" d="M527.599,351.369c0,3.438-2.949,6.225-6.591,6.225h-9.692c-3.641,0-6.591-2.786-6.591-6.225v-9.154
		c0-3.438,2.95-6.225,6.591-6.225h9.692c3.642,0,6.591,2.787,6.591,6.225V351.369z"/>
	<path fill="#525757" d="M555.749,351.369c0,3.438-2.95,6.225-6.59,6.225h-9.693c-3.64,0-6.59-2.786-6.59-6.225v-9.154
		c0-3.438,2.95-6.225,6.59-6.225h9.693c3.64,0,6.59,2.787,6.59,6.225V351.369z"/>
	<path fill="#525757" d="M583.899,351.369c0,3.438-2.949,6.225-6.59,6.225h-9.693c-3.64,0-6.59-2.786-6.59-6.225v-9.154
		c0-3.438,2.95-6.225,6.59-6.225h9.693c3.641,0,6.59,2.787,6.59,6.225V351.369z"/>
	<path fill="#525757" d="M641.961,321.458c0,3.438-2.95,6.225-6.591,6.225h-9.693c-3.639,0-6.59-2.787-6.59-6.225v-9.155
		c0-3.437,2.951-6.225,6.59-6.225h9.693c3.641,0,6.591,2.788,6.591,6.225V321.458z"/>
	<rect x="309.278" y="34.928" fill="#333333" width="356.505" height="222.459"/>
	<ellipse fill="#D2A265" cx="857.407" cy="266.321" rx="45.967" ry="33.136"/>
	<path fill="#969FA1" d="M687.239,484.613c0,6.338-3.78,10.998-9.754,10.998H298.929c-5.973,0-11.107-4.66-11.107-10.998v-3.016
		h399.417V484.613z"/>
	<path fill="#C2CDCF" d="M541.997,453.087c0,3.17-2.422,5.738-5.408,5.738h-98.116c-2.987,0-5.408-2.568-5.408-5.738v-42.824
		c0-3.17,2.421-5.738,5.408-5.738h98.116c2.986,0,5.408,2.568,5.408,5.738V453.087z"/>
	<polygon fill="#D2A265" points="173.567,515.146 173.541,379.937 173.534,347.488 54.605,347.515 54.612,379.966 54.639,515.174 
		54.642,531.399 173.57,531.369 	"/>
	<rect x="63.976" y="347.501" fill="#F37777" width="118.929" height="31.555"/>
	<rect x="63.993" y="379.056" fill="#FFFFFF" width="118.93" height="131.476"/>
	<rect x="64.008" y="510.534" fill="#C2DEE6" width="118.929" height="15.777"/>
	<polygon fill="#CEE8F0" points="182.938,486.12 64.009,486.147 64.006,481.85 182.935,481.823 	"/>
	<polygon fill="#CEE8F0" points="182.938,460.293 64.009,460.321 64.006,456.022 182.935,455.995 	"/>
	<polygon fill="#CEE8F0" points="182.938,434.466 64.009,434.494 64.006,430.195 182.935,430.167 	"/>
	<polygon fill="#CEE8F0" points="182.938,408.638 64.009,408.666 64.006,404.368 182.935,404.339 	"/>
	<g>
		<path fill="#1F81C2" d="M814.134,196.267c-0.055,3.503-0.09,3.935-0.09,5.801c0,55.573,22.984,92.128,56.783,92.128
			c36.053,0,56.783-36.616,56.783-92.189c0-1.866-0.035-2.238-0.09-5.742L814.134,196.267L814.134,196.267z"/>
		<polygon fill="#C3E2C1" points="795.655,275.091 822.063,275.091 822.063,245.533 808.859,236.923 795.655,246.61 		"/>
		<path fill="none" stroke="#1F81C2" stroke-width="5" stroke-miterlimit="10" d="M816.297,213.967c0,0-22.983-3.35-22.983,20.087
			c0,23.438,36.504,27.476,36.504,27.476"/>
		<ellipse fill="#52A6DC" cx="870.828" cy="195.313" rx="56.783" ry="44.48"/>
		<path fill="#6C4D29" d="M917.937,195.347c0,20.379-21.091,34.032-47.108,34.032c-26.019,0-47.108-13.653-47.108-34.032
			c0-20.38,21.091-34.101,47.108-34.101S917.937,174.967,917.937,195.347z"/>
		<path fill="#906739" d="M916.164,205.267c-5.537-8.628-23.712-16.993-45.336-16.993c-21.621,0-39.8,8.365-45.337,16.993
			c5.538,15.557,23.716,26.983,45.337,26.983C892.452,232.25,910.627,220.824,916.164,205.267z"/>
		<path fill="none" stroke="#FFF6E7" stroke-width="2" stroke-linecap="round" stroke-miterlimit="10" d="M846.379,209.303
			c0,0-9.464-6.817-23.998-1.076c-14.534,5.742-12.168,32.644-12.168,32.644"/>
		<rect x="795.655" y="275.091" fill="#45AD72" width="26.408" height="5.255"/>
	</g>
	<ellipse fill="#333333" cx="485.927" cy="22.795" rx="4.931" ry="4.136"/>
	<g>
		<polygon fill="#D2A265" points="223.927,496.151 223.923,382.62 223.922,355.373 204.193,355.396 204.194,382.644 
			204.199,496.174 204.199,509.798 223.928,509.773 		"/>
		<ellipse fill="#F15C5A" cx="216.472" cy="351.2" rx="7.45" ry="9.435"/>
		<rect x="209.021" y="352.302" fill="#FAA819" width="15.519" height="157.435"/>
		<polygon fill="#D2A265" points="218.534,534.711 211.978,510.276 210.404,504.413 203.867,506.328 205.441,512.192 
			211.997,536.625 212.784,539.558 219.32,537.643 		"/>
		<polygon fill="#F6D6B1" points="224.208,505.33 215.84,539.398 208.133,505.33 		"/>
		<polygon fill="#363636" points="220.468,523.298 216.636,539.472 213.105,523.298 		"/>
		<rect x="209.318" y="352.302" fill="#B9B8B6" width="15.52" height="9.279"/>
	</g>
	<ellipse fill="#C0C9CA" cx="668.972" cy="293.796" rx="7.063" ry="6.38"/>
	<g>
		<path fill="#D2A265" d="M850.649,361.582h-84.948c-1.341,0-2.792,4.605-2.792,9.602v149.271v2.263
			c0,4.995,1.451,8.668,2.792,8.668h84.948c1.34,0,2.26-3.673,2.26-8.668v-2.263V371.183
			C852.909,366.187,851.989,361.582,850.649,361.582z"/>
		<path fill="#525757" d="M859.269,355.412c2.087,0.002,3.778,1.98,3.776,4.418l-0.134,154.22c-0.002,2.438-1.696,4.412-3.785,4.411
			l-81.304-0.07c-2.088-0.002-3.779-1.98-3.778-4.418l0.135-154.219c0.002-2.438,1.697-4.414,3.784-4.412L859.269,355.412z"/>
		
			<rect x="761.881" y="395.907" transform="matrix(-8.659799e-04 1 -1 -8.659799e-04 1254.1904 -383.7961)" fill="#333333" width="113.892" height="77.495"/>
		<path fill="#333333" d="M828.704,370.208c0,0.68-0.668,1.23-1.492,1.23h-14.846c-0.825,0-1.494-0.551-1.494-1.23v-0.615
			c0-0.678,0.669-1.229,1.494-1.229h14.846c0.824,0,1.492,0.551,1.492,1.229V370.208z"/>
		<ellipse fill="#333333" cx="819.788" cy="362.582" rx="2.602" ry="2.545"/>
		<ellipse fill="none" stroke="#333333" stroke-miterlimit="10" cx="819.788" cy="504.413" rx="9.174" ry="7.908"/>
		<rect x="816.626" y="501.43" fill="none" stroke="#333333" stroke-miterlimit="10" width="6.324" height="5.778"/>
	</g>
	<g>
		<path fill="#D2A265" d="M183.797,127.914H57.748c-1.989,0-4.143,5.371-4.143,11.197v174.058v2.639
			c0,5.824,2.154,10.107,4.143,10.107h126.049c1.989,0,3.353-4.283,3.353-10.107v-2.639V139.111
			C187.15,133.285,185.786,127.914,183.797,127.914z"/>
		<path fill="#525757" d="M191.308,121.341c3.121,0.003,5.649,2.376,5.647,5.3l-0.16,184.949c-0.003,2.924-2.535,5.292-5.656,5.29
			l-121.516-0.105c-3.121-0.003-5.649-2.376-5.647-5.3l0.16-184.949c0.003-2.924,2.536-5.293,5.656-5.291L191.308,121.341z"/>
		
			<rect x="50.914" y="163.027" transform="matrix(-8.699138e-04 1 -1 -8.699138e-04 348.8035 87.0862)" fill="#333333" width="159.964" height="109.533"/>
		<ellipse fill="#333333" cx="130.545" cy="130.717" rx="2.036" ry="2.414"/>
		<ellipse fill="none" stroke="#333333" stroke-miterlimit="10" cx="131.125" cy="305.804" rx="6.248" ry="5.283"/>
		<rect x="128.971" y="303.812" fill="none" stroke="#333333" stroke-miterlimit="10" width="4.308" height="3.86"/>
	</g>
</g>
</svg>
